/* XPM */
static char *d7e2a9e375ee4920dcc79709d825b7b39whZfeOyhzmFfZg5[] = {
/* columns rows colors chars-per-pixel */
"50 50 37 1 ",
"  c #47704C",
". c None",
"X c #9AA3B6",
"o c #686C7F",
"O c #8B94A7",
"+ c #767C8F",
"@ c #949EB1",
"# c #7F8699",
"$ c #9099AC",
"% c #9AA3B6",
"& c #878FA2",
"* c #6B7083",
"= c #64697D",
"- c #636779",
"; c #636678",
": c #8992A5",
"> c #919BAE",
", c #71778A",
"< c #848C9F",
"1 c #8890A3",
"2 c #9AA3B6",
"3 c #99A3B5",
"4 c #909C89",
"5 c #797F91",
"6 c #9099AC",
"7 c #929CAE",
"8 c #717789",
"9 c #7A8092",
"0 c #949EB1",
"q c #6E7385",
"w c #7D8496",
"e c #919BAE",
"r c #838B9E",
"t c #8790A3",
"y c #8D96A9",
"u c #6A6E80",
"i c #73798C",
/* pixels */
"                                                  ",
" >%3XXXXXXXXXXXXXXXXXXXXXXXXXXXXXXXXXXXXXXXXXX2%> ",
" :O.....................711OOOOOOOOOOOOOOOOOOOOO$ ",
" #+y000000000000000000006iiwwwwwwwwwwwwwwwwwwww&$ ",
" #+t6666666666666666666ey8q55555555555555555559&$ ",
" #+t6666666666666666666ey8q95555555555555555559&$ ",
" #+t6666666666666666666ey8q95555555555555555559&$ ",
" #+t6666666666666666666ey8q95555555555555555559&$ ",
" #+t6666666666666666666ey8q95555555555555555559&$ ",
" #+t6666666666666666666ey8q95555555555555555559&$ ",
" #+t6666666666666666666ey8q95555555555555555559&$ ",
" #+t6666666666666666666ey8q95555555555555555559&$ ",
" #+t6666666666666666666ey8q95555555555555555559&$ ",
" #+t6666666666666666666ey8q95555555555555555559&$ ",
" #+t6666666666666666666ey8q95555555555555555559&$ ",
" #+t6666666666666666666ey8q95555555555555555559&$ ",
" #+t6666666666666666666ey8q95555555555555555559&$ ",
" #+t6666666666666666666ey8q95555555555555555559&$ ",
" #+t6666666666666666666ey8q95555555555555555559&$ ",
" #+t6666666666666666666ey8q95555555555555555559&$ ",
" #+t6666666666666666666ey8q95555555555555555559&$ ",
" #+t6666666666666666666ey8q95555555555555555559&$ ",
" #+teeeeeeeeeeeeeeeeeee7y8q99999999999999999999&$ ",
" #+wrrrrrrrrrrrrrrrrrrrty8uqqqqqqqqqqqqqqqqqqq8<$ ",
" :w888888888888i8888iii5twuuuuuuuuuuuuuuuuuuuuq<$ ",
" :1tttttttttttttttttttttyy666666666666666666666@$ ",
" #*5wwwwwwwwwwwwwwwwwwwwtwy00000000000000000000@$ ",
" #o855555555555555555599r5r777e777777e7777777e0@$ ",
" #o855555555555555555559rir77777777777777777770@$ ",
" #o85555555555555555555wwir77777777777777777770@$ ",
" #o855555555555555555559wir77777777777777777770@$ ",
" #o855555555555555555559wir777777777777777777e0@$ ",
" #o855555555555555555555wir77777777777777777770@$ ",
" #o85555555555555555555598r77777777777777777770@$ ",
" #o85555555555555555555558r77777777777777777770@$ ",
" #o85555555555555555555558r77777777777777777770@$ ",
" #o855555555555555555555i8r77777777777777777770@$ ",
" #o85555555555555555555ii8r77777777777777777770@$ ",
" #o85555555555555555555ii8r77777777777777777770@$ ",
" #o85555555555555555559ii8r77777777777777777770@$ ",
" #o85555555555555555555i88r777777777777777777e0@$ ",
" #o85555555555555555555i8qr77777777777777777770@$ ",
" #o855555555555555555558qqr77777777777777777770@$ ",
" #o855555555555555555558q8r777777777777777777e0@$ ",
" #o8555555555555555555iqqqr77777777777777777770@$ ",
" #o895555555555555555558qqr77777777777777777770@$ ",
" #ou8888888888888888888uqqryyyyyyyyyyyyyyyyyyye@$ ",
" :,;----------------;;;-+,********************,<$ ",
" >:#######################=====================#> ",
"                                                  "
};
