/* XPM */
static char *_bfb8bcc31a44afbae0fbe13241fd2aaKXYBWtX8PdMBTvQL[] = {
/* columns rows colors chars-per-pixel */
"50 50 256 2 ",
"   c #47704C",
".  c #B6B5B1",
"X  c #C8C7C4",
"o  c #A9A8A3",
"O  c #8F8F8A",
"+  c #5E5A55",
"@  c #3F362F",
"#  c #AAA6A0",
"$  c #84807A",
"%  c #757069",
"&  c #D0CFCC",
"*  c None",
"=  c #7F5D43",
"-  c #5B5A55",
";  c #714A2E",
":  c #93928C",
">  c #BDBBB8",
",  c #3A332D",
"<  c #423D38",
"1  c #787873",
"2  c #936D4E",
"3  c #A9A6A2",
"4  c #6D6D67",
"5  c #5D5A55",
"6  c #B4B2AE",
"7  c #959590",
"8  c #7F7971",
"9  c #4C4844",
"0  c #686863",
"q  c #7C7369",
"w  c #9F9F9A",
"e  c #504035",
"r  c #74746E",
"t  c #6E4B33",
"y  c #B3B2AE",
"u  c #C5C4C0",
"i  c #A1A09C",
"p  c #A6A4A0",
"a  c #989792",
"s  c #40362E",
"d  c #593822",
"f  c #B3B1AD",
"g  c #8F8C87",
"h  c #C1C0BC",
"j  c #7E7E78",
"k  c #84847F",
"l  c #9F9D98",
"z  c #413C38",
"x  c #A6A39F",
"c  c #94938E",
"v  c #8E8B87",
"b  c #8C7056",
"n  c #989690",
"m  c #BBB9B6",
"M  c #BDBBB8",
"N  c #B5B3AF",
"B  c #B4B3B0",
"V  c #C0BFBC",
"C  c #6C6B66",
"Z  c #87857F",
"A  c #AFADAA",
"S  c #A8A6A1",
"D  c #585651",
"F  c #827F79",
"G  c #5A5955",
"H  c #87857F",
"J  c #4E4944",
"K  c #989792",
"L  c #8E8E89",
"P  c #53463A",
"I  c #71716B",
"U  c #74736E",
"Y  c #62615C",
"T  c #878580",
"R  c #676762",
"E  c #3F3228",
"W  c #593822",
"Q  c #75523A",
"!  c #9A958F",
"~  c #BCBBB8",
"^  c #75756F",
"/  c #BBBAB7",
"(  c #B7B6B2",
")  c #96948E",
"_  c #5E5D57",
"`  c #ADACA8",
"'  c #988064",
"]  c #989792",
"[  c #BAB9B6",
"{  c #888580",
"}  c #3D3833",
"|  c #95938E",
" . c #7F7C75",
".. c #38322C",
"X. c #9E9D99",
"o. c #937759",
"O. c #94948F",
"+. c #6E5643",
"@. c #67615B",
"#. c #653F27",
"$. c #6A452B",
"%. c #817260",
"&. c #86857F",
"*. c #9B9A96",
"=. c #959590",
"-. c #AC8E6C",
";. c #AAA69E",
":. c #A88A69",
">. c #A68461",
",. c #575550",
"<. c #76756F",
"1. c #897157",
"2. c #836A50",
"3. c #5E4E3E",
"4. c #494742",
"5. c #93745B",
"6. c #CADBB5",
"7. c #AE93B7",
"8. c #9F7853",
"9. c #AEADA9",
"0. c #94938E",
"q. c #BCBBB8",
"w. c #B9B8B4",
"e. c #805A3B",
"r. c #7F5738",
"t. c #666661",
"y. c #9F9E9A",
"u. c #B7B6B3",
"i. c #B5B4B1",
"p. c #5D3B24",
"a. c #7B4D2F",
"s. c #B4B2AF",
"d. c #956A45",
"f. c #797873",
"g. c #9D7550",
"h. c #855E3E",
"j. c #764D2F",
"k. c #593721",
"l. c #989893",
"z. c #7A7A75",
"x. c #696963",
"c. c #73736E",
"v. c #9C9B97",
"b. c #84847F",
"n. c #91918C",
"m. c #888782",
"M. c #704A2E",
"N. c #765134",
"B. c #623E25",
"V. c #815131",
"C. c #B1B0AD",
"Z. c #A5A5A1",
"A. c #996F4B",
"S. c #664026",
"D. c #ABA9A5",
"F. c #6B6B66",
"G. c #8F5F3C",
"H. c #7B5435",
"J. c #7B5031",
"K. c #866343",
"L. c #8A5937",
"P. c #C1C0BC",
"I. c #767570",
"U. c #BBB9B6",
"Y. c #6D6D68",
"T. c #52504B",
"R. c #8F8F8A",
"E. c #A5805B",
"W. c #92603D",
"Q. c #7C7D77",
"!. c #BEBDBA",
"~. c #8D8D88",
"^. c #91623F",
"/. c #785437",
"(. c #6B5B56",
"). c #8B6240",
"_. c #4B4945",
"`. c #8A5D3B",
"'. c #75492C",
"]. c #71462A",
"[. c #52321E",
"{. c #89684C",
"}. c #5E4F49",
"|. c #7A573A",
" X c #5B4943",
".X c #53423A",
"XX c #6B462B",
"oX c #865A38",
"OX c #756660",
"+X c #815434",
"@X c #585753",
"#X c #71716C",
"$X c #63534D",
"%X c #815D3F",
"&X c #A4A19D",
"*X c #6D4328",
"=X c #5E5C58",
"-X c #8B8A86",
";X c #493326",
":X c #4F3D36",
">X c #918177",
",X c #877870",
"<X c #956541",
"1X c #695851",
"2X c #996C47",
"3X c #966C48",
"4X c #A27C57",
"5X c #906642",
"6X c #855534",
"7X c #A9A7A3",
"8X c #684126",
"9X c #63625D",
"0X c #807F79",
"qX c #9A8B80",
"wX c #8F6848",
"eX c #8A6645",
"rX c #8E5C39",
"tX c #94704E",
"yX c #51382A",
"uX c #9A8476",
"iX c #5F412E",
"pX c #735846",
"aX c #6F6F6A",
"sX c #937252",
"dX c #8A7C71",
"fX c #81827C",
"gX c #58463C",
"hX c #857467",
"jX c #45433E",
"kX c #493932",
"lX c #6B4A32",
"zX c #836E5F",
"xX c #795D49",
"cX c #704F36",
"vX c #907664",
"bX c #826652",
"nX c #634E45",
"mX c #95908B",
"MX c #70605B",
"NX c #977453",
"BX c #583B29",
"VX c #554640",
"CX c #7A6C65",
"ZX c #987F6C",
"AX c #7C6B5D",
"SX c #6E635E",
"DX c #917B6F",
"FX c #A1968D",
"GX c #A59B95",
"HX c #7E6E68",
"JX c #746153",
"KX c #82736E",
"LX c #8E837E",
"PX c #442A19",
"IX c #89807A",
"UX c #47704C",
/* pixels */
"                                          h & & & & & & & X                                         ",
"                                          3 > > > > > > [ 6                                         ",
"                                      h . F 7Xu.w.w.w.C.` / h #                                     ",
"                                      3 n 4 y.q.U.w.u.C.p *.[ V                                     ",
"                                  $ : F mXY.n.u.C.C.i.s.l.l.y 6 X                                   ",
"                                . 3 v Y ~.Q.0XC.s.u.i.9.0.Z.v.T o /                                 ",
"                            # H a 0.0X@Xf.-X#X9.u.u.s.Z.R.D.b.f.R.i g )                             ",
"                          . 3 L n.l.R.t.=XmXaX&Xs.s.C.y.0.Z.c.m.v.v.~.K 6                           ",
"                  $ X # ( w l.l.v.v.0.f.T.m.0Xb.m.m.R.0.l.-Xc.n.y.y.v.l.i N u   $                   ",
"                  6 ~ 3 =.~.l.v.v.l.n.b.@Xc.y.z.G G x.m.Z.z.0X0.l.y.y.y.n.0.| N M                   ",
"                X ~ U.9.b.f.~.l.0.~.m.dXAXJXqXqXhX,X>XFX;.j L 0.0.l.v.l.b.Y.b.s.> V                 ",
"                ( u.q.q.7Xf.c.m.b.dXxXN.).H.eXh.).NXwXsX-.' { a n.~.0.m.t.z.9.U.w.m #               ",
"              h B u.P.P.q.Z.c.aXhXwXJ.j.d.`.wXH.5XA.).|.).>.' q c k 0Xt.I.9.!.P.U.s./               ",
"              N s.w.!.P.P.w.y.zXwX^.N.j.g.d.sXr.A.4X3X%X).5X:.%.e U 0 c.7Xq.P.P.q.i.f u             ",
"            V y s.u.q.!.P.U.9.FXtX3X%XH.8.g.tXe.g.E.3Xe.A.5XtXb P   F Z.C.!.P.!.U.i.A M             ",
"          # m C.i.u.w.q.!.U.C.qXNX8.K.e.8.g.sXe.8.E.d./.8.A.eXNX1.E H x i.!.!.U.u.u.C.B &           ",
"          . f p s.w.u.w.U.w.&XK.8.4Xe./.8.A.sXe.g.E.d./.8.8.K.|.E.P 5 | C.q.U.u.u.w.s.A M           ",
"          $ + J =Xf.mXZ.C.i.hXH.4X8.e.H.8.d.NXh.A.E.d.N.g.4XeXlXtXb ..8 i u.s.9.y.-Xf.g h           ",
"            + D _.jX} jX9XdXcXe.8.g.e.e.8.d.sXh.A.E.d./.g.8.K.cXe.E.P $ g L F.T._._.T.U             ",
"            H fXQ.z.x._.T.cXM.h.8.8.e.e.8.2XtXK.2XE.3X|.8.g.K./.+XE.3.< < ,.jX@XaXf.z.c             ",
"            g ~.R.R.~.c.I.h.|.h.8.8.%Xr.8.A.wXh.<XE.d.|.4X8.eX|.`.E.+.e   <.Y.fXR.R.R.K X           ",
"          $ &.R.0.0.R.z.CX).%Xr.A.g.%Xr.8.2X).oXW.4Xd.N.8.8.h.%XG.4X2.E   U c.m.0.0.n.O.:           ",
"           .j fXm.m.fXfXzX5Xe.'.A.2X|.r.8.3Xh.e.W.g.A.M.g.8.h.K.<XA.o.,   8 k b.-X~.-Xk 7           ",
"          % C F.t.x.x.#XAX).N.H.g.d./.e.8.g.K.r.G.A.g.M.d.d.H.e.L.).o.s   q I x.F.x.x.4 8           ",
"        $ 3 p 7XZ.v.0.&X&XuXpXH.5XoXN.e.3XA.K.J.oX`.tXlX{.uX* N.J.J.{.s $ c v.n.-Xl.v.v.S u         ",
"        # o u.q.w.C.9.7X7XLX>XuXuXvXvXvXZXZXZXhXvXDXZXhX,XmXGXvX'.oX{.s < a D.D.9.u.!.q.y .         ",
"        # o i.q.U.u.s.7XZ.OX1X(.HXCXOXOXOXOXHXOXCXHX(.MXMXOXKXFXzXh.{.s < v &XD.s.U.q.U.y .         ",
"        # o C.s.u.u.i.C.9.SX XVX X.X:X.XkXkX.X.X X}. XnXnX$X}.$X X%X{.s < a 9.C.u.w.w.s.y .         ",
"        $ S x x x l l l 0.$X;XyXiXiXyX[.k.p.BX;XyX;X;X;X:X.X.XiXS.e.{.@ < v 7Xp p D.A 9.` .         ",
"          q J z z z z } kXyXp.M.oX`.N.XX+XV.%XM.J.].S.k.S.BXlXN.].r.{.@   @.J 9 9 9 9 D { #         ",
"          5 _ @X=X@XT.T.gX'.XXr.5X2X|.M.W.`.K.J.<X^.+XM.`.J.N./.].e.{.@   + 9 jX_.T.T.G 8           ",
"          % C f.m.b.c.Y.xXoXXXh.^.<X/.M.G.`.K.J.d.d.5XcX3Xh.M.8X'.r.{.@   + 0 t.f.b.z.4 8           ",
"          % j m.~.m.f.#XbX^.M.).G.^.H.j.rX^.eXJ.<Xd.^.XXwXzX,XxX'.j.K.@   + 0 aXfX~.-Xk 7           ",
"          % j 0XfXQ.I.#XbXrXM.h.G.G.|.j.W.^.eXJ.^.2X`.8X%X(.,XAXM.j.= @   + 4 Y.z.fXb.k 7           ",
"          5 ^ aXY.Y.Y.c.bXL.XXr.G.rXN.'.W.G.h.a.W.<X+XB.pXVX}.OXlXa.= @   + I F.aXaXc.1 7           ",
"          5 ^ x.=X@X=Xx.* V.S.r.G.L.M.].W.G.e.J.<X^.a.B.xX}.VX(.iXJ.= @   + 0 =X@X@X9XI Z           ",
"          % r t.9Xt.t.c.pXV.S.oX`.6XXX*XW.rXH.j.W.G.].p.N.1X1X.XS.+X= @   - 4 9X9X9Xt.1 O           ",
"          % C F.F.x.F.c.zXe.p.J.a.a.S.S.L.6XH.j.L.6Xk.[.8XBXPXk.].oX= ,   - 4 t.t.t.x.I O           ",
"          % r I.z.c.Y.#XIXqXJX* N.j.B.B.M.j././.r.e.lXiXbXqXpXXX].`.= ,   - R F.Y.I.I.1 O           ",
"          % r f.Q.Q.aXF.SXOXdX>XqX>X,XdXDXDXuX>X>X>X,XKXCX,XGXuXcXr.= ,   - R x.I.Q.z.1 O           ",
"          % r f.Q.Q.c.x.SX1X$X$XMX1X$X1X$X$X1X$X(.MX}.(.(.(.(.LXAXN.* ,   - Y F.f.Q.z.1 O           ",
"        $ % r #Xz.Q.f.aX(.}. XgXgX.X:X:XkXkX:X:XgX X XnXnX}. XgXiXH.* ,   - R #Xz.z.I.1 O           ",
"          % _ =Xt.x.t.t.}.:X;X[.p.B.p.B.S.k.[.k.p.k.BX;XyX.XyXB.].oX* ,   - Y t.F.Y.t.0 Z           ",
"          Z D _.T.T.T._.VXp.p.p.j.'.XXj.L.a.p.*X6Xa.a.k.B.p.B.j.V.L.* ..  @.4._._._.jX9 q           ",
"        $ S Z.y.v.y.y.n.GX* [.B.+XV.S.j.G.L.B.'.rXV.V.k.+XV.p.'.L.6X= @.% K m.~.0.n.0.l m #         ",
"        # o y.y.Z.9.9.&X&XxX[.8XV.V.B.'.G.L.8Xa.G.V.+Xp.L.6Xk.*Xa.J.{.! + T v.7XD.Z.y.&XB u         ",
"        # o Z.9.i.i.i.9.D.xX[.S.a.V.B.].L.oXB.a.rXa.a.p.V.a.[.S.*Xj.b ! + T Z.C.s.s.9.Z.f X         ",
"        < o 7X9.9.9.9.7X9.pXPXk.8X].k.p.*XXXk.*Xa.*XS.[.S.8X[.k.k.XXb ! + n Z.D.9.9.C.9.f X         ",
"        $ c a w w w w O.w +.W W #.; W #.; ; ; ; ; ; ; d d $.d d d $.5.6 e v n n X.i i X.o X         ",
"          ) : : : : : : : e e e Q Q Q 2 2 2 2 2 2 q q t t t t t E t 8 u < q O O O 7 7 7 ] $         "
};
