/* XPM */
static char *_73562a3a31146cadc4b301f4b84cf9fk7i7e7YmMGzjlzEe[] = {
/* columns rows colors chars-per-pixel */
"50 50 169 2 ",
"   c gray97",
".  c #B7753C",
"X  c #EECE70",
"o  c #5F3B1B",
"O  c #FEFEFE",
"+  c #F9F9F9",
"@  c #FBFBFB",
"#  c #B6743C",
"$  c #FFEF95",
"%  c #F8F8F8",
"&  c #AD0E00",
"*  c #AF0F00",
"=  c gray37",
"-  c #FFF297",
";  c #B2B2B2",
":  c #71706F",
">  c #FFF196",
",  c #CECECE",
"<  c #B57239",
"1  c #34200F",
"2  c #3A311B",
"3  c #1C1D1D",
"4  c #2E2111",
"5  c gray94",
"6  c gray13",
"7  c #F9E286",
"8  c gray28",
"9  c #797675",
"0  c #E5E5E6",
"q  c #F4F4F5",
"w  c #656463",
"e  c #322718",
"r  c gray51",
"t  c #E7D987",
"y  c #5C5845",
"u  c #3D3731",
"i  c #434142",
"p  c #B6733B",
"a  c #520702",
"s  c #0F0F0E",
"d  c #390704",
"f  c #D8D8D9",
"g  c #6B6B6A",
"h  c #A2A1A1",
"j  c #F1E28C",
"k  c gray88",
"l  c #DECF7F",
"z  c #FCED93",
"x  c #E3D483",
"c  c #888B8C",
"v  c #D9BC66",
"b  c #282827",
"n  c #5D0904",
"m  c #280200",
"M  c #96844A",
"N  c #CEB261",
"B  c #784B24",
"V  c #88562A",
"C  c #9D6433",
"Z  c gray93",
"A  c #FAE98F",
"S  c #969697",
"D  c #FFF599",
"F  c #482A14",
"G  c #C9AD5D",
"H  c #191814",
"J  c #4F4E4D",
"K  c #640600",
"L  c #980B00",
"P  c #200503",
"I  c #0C0504",
"U  c #151515",
"Y  c #2E120F",
"T  c #300300",
"R  c #554929",
"E  c #64777C",
"W  c gray19",
"Q  c #CAA383",
"!  c #E9E9E9",
"~  c #B7B8B9",
"^  c #3F351E",
"/  c #A9A9AA",
"(  c #555656",
")  c #5C5236",
"_  c #F5DD81",
"`  c #AB9350",
"'  c #726337",
"]  c #F2D272",
"[  c #909192",
"{  c #967E45",
"}  c #E8C96D",
"|  c #839BA2",
" . c #C28857",
".. c #C79265",
"X. c #805026",
"o. c #613D1C",
"O. c #3B240F",
"+. c #5E5B51",
"@. c #C8C9C9",
"#. c #D4C87C",
"$. c #6A6541",
"%. c #A28B4D",
"&. c #E2C369",
"*. c #4D4223",
"=. c #F2D679",
"-. c #B00F00",
";. c #490603",
":. c #23140E",
">. c #420200",
",. c #5C502D",
"<. c #65562E",
"1. c #8C847E",
"2. c #B5AAA1",
"3. c #CA9A71",
"4. c #533318",
"5. c #AC6D38",
"6. c #9C9B9C",
"7. c #B1A768",
"8. c #BDB26E",
"9. c #C2C2C3",
"0. c #88763F",
"q. c #6D5935",
"w. c #485357",
"e. c #800B00",
"r. c #776F46",
"t. c #A50E00",
"y. c #A10D00",
"u. c #9E0D00",
"i. c #770700",
"p. c #3A1C0F",
"a. c #665B37",
"s. c #C0834F",
"d. c #9F968E",
"f. c #CDAF96",
"g. c #AE9A96",
"h. c #D5D5D6",
"j. c #583718",
"k. c #B39B52",
"l. c #925C2E",
"z. c #C5C5C5",
"x. c #F8E68D",
"c. c #C4AA5B",
"v. c #84723E",
"b. c #3B2928",
"n. c #837A4A",
"m. c #8C0A00",
"M. c #5F4E2A",
"N. c #870A00",
"B. c #7C6B3A",
"V. c #57676C",
"C. c #242116",
"Z. c #B6D7E1",
"A. c #68411F",
"S. c #A59C61",
"D. c #6C4420",
"F. c #D0BB6C",
"G. c #DAC471",
"H. c #920C00",
"J. c #82723C",
"K. c #B7D9E4",
"L. c #711E16",
"P. c #A7C6D0",
"I. c #AD4E46",
"U. c #DEEEF4",
"Y. c #494439",
"T. c #871106",
"R. c #B7D8E2",
"E. c #A2C0C9",
"W. c #B7CE1B",
/* pixels */
"                                                                                                    ",
"                                        + @ @ +   + @ @ + %                                         ",
"                                    +   f ; S r : r 6.~ , 0 q + %                                   ",
"                                % % , 9 = : 1.g.2.d.1.: w = g h 5 +                                 ",
"                              + ! c ( 1.Q 3... .s. . ...Q f.2.g 9 0 +                               ",
"                            @ , = 9 Q  .p < < p p p < < < # s.Q 9 w 0 +                             ",
"                          + z.( d.3.. < # # # # # # # # # # p #  .q.= 0 +                           ",
"                        + @.( 2.3.< # # # # # # # # # # # # # # # < o.w ! %                         ",
"                      % Z = h Q < # # # # # # # # # # # # # # # # . < 4.9                           ",
"                      + @.= f.. # # # # # # # # # # # # # # # # # # . X.u 0 %                       ",
"                      @ ; 9 ..p . # # # # . . . . . . # # # # # # # . V e , +                       ",
"                      @ h ) C V X.B B B B X.X.V l.C 5.. . # # # # # . V 4 / @                       ",
"                      @ S 1 F 4 2 2 ^ ^ ^ ^ ^ 2 e 1 j.l.5.. # # # # . V 1 h @                       ",
"                      + f i :.7.x t t t t t t l #.S.2 F D.C # # # . 5.B 1 ; @                       ",
"                        + 9.u x D - > > > > > - - D 7.e 4 4.C . # C B o.1 ; @                       ",
"                        % 0 y l l l z $ $ $ A x x x.z F.%.e o C V A.o.o.4 ; @                       ",
"                        % k y %.{ ` j > $ > t %.{ { l 7 X ` 4 o o.o.o.o.4 ~ @                       ",
"                        + f y #.r.l > $ $ $ - 8.n.x j 7 X v 2 4.o.o.o.o e 9.+                       ",
"                        + h.y x ) #.> $ $ $ - 7.$.z > 7 X v 2 4 O.o o.o e , +                       ",
"                        + f y j j z $ $ $ $ $ x.j $ > 7 X } c.c.*.F o.j.u k %                       ",
"                        % k y t > $ $ $ $ $ $ $ $ $ > _ X X X ] 0.1 o.O.g q                         ",
"                        % Z +.l > $ $ $ $ $ $ $ $ $ $ =.X } &.G *.F O.8 f +                         ",
"                            : 8.- $ $ $ $ $ $ $ $ $ 7 X } q.^ e 1 1 J h.+                           ",
"                          + / $.x.> $ > > $ $ z A _ X X N 4 1 O.4 : k +                             ",
"                          % 5 9 ' G.7 7 7 _ =.=.] X X X v.6 = w ; q +                               ",
"                            % Z c u ' ` c.G N N N G k.' Y Y r 5 @                                   ",
"                              + q i >.T H R ,.,.R H P d T m P J z.+                                 ",
"                                S :.T.d m q.v v <.m m m K N.K ;.u f +                               ",
"                            + ; Y Y g.b.n d <.M.d n :.Y t.L n i.>.:                                 ",
"                            + g >.d I.L.T K I T K T n ;.u.& L i.K b.0 %                             ",
"                            @ r I P L & a P d m m K t.>.m.-.y.K T u 0 %                             ",
"                          % Z +.J.1 L * y.i.y.e.e.& -.K ;.n F M.M ,./ @                             ",
"                          + ; a.v F L * * -.* * * & * H.P $.l _ ] ` = q                             ",
"                          + : M v p.L * & & & & & & * u.;.r.D A X &.) , +                           ",
"                          5 +.c.v p.m.* & & & & & * & N.a R z z =.X 0.[ @                           ",
"                          k y &.N p.i.t.* * * * -.u.a Y I ^ j > _ X k.w q                           ",
"                        + @.a.} N :.m d a a a a a d g c b e t > 7 X G y Z %                         ",
"                        @ ~ ' ] ` s s 3 6 3 3 3 s J ~ h W C.#.- A ] c.+.5                           ",
"                        + 9.) } B.s I U 6 6 6 6 s = S [ i s 8.D x.&.' r +                           ",
"                        % 5 : B.0.C.<.,.*.R ^ 6 8 b $.r.a.R ) M v.R w k %                           ",
"                          % 0 r Y.2 M %.M { <.J , u n.M M { *.i r ; Z +                             ",
"                            % + , W V.E E E V.( , 8 [ 6.c E w.9 O + %                               ",
"                              + k w.P.Z.Z.R.E.= , w + O U.K.| :                                     ",
"                              % k 8 | | | | E 8 , J / / c E w.= q                                   ",
"                              + @.b i 3 U H U W ; 6 8 W U H s 8 5                                   ",
"                            % 5 = ( [ W b b b 6 i W h 8 b b 6 i 5                                   ",
"                            + , 3 i 8 U H H U I I u : 6 3 3 s J 5                                   ",
"                            % ! ; S c c [ S 6.h r g g = = w : ~                                     ",
"                              % @ @ @ @ @ @ @ @ + %         + +                                     ",
"                                                                                                    "
};
