/* XPM */
static char *_500f3921b544e66f6ca3197bc966786hqxNfILYvKctNzWt[] = {
/* columns rows colors chars-per-pixel */
"50 50 91 1 ",
"  c #F2CB01",
". c #F5D002",
"X c #E6BE08",
"o c #DAB60C",
"O c #F3CC03",
"+ c #F3F2F1",
"@ c #F4CD04",
"# c #F2F2F3",
"$ c #F2CA01",
"% c #F4CB01",
"& c #F1CC01",
"* c #F1D102",
"= c #F2F2EF",
"- c #F7CD04",
"; c #FCFCFD",
": c #F0C900",
"> c #F1F1F0",
", c #F4F7FF",
"< c #F3CE0C",
"1 c #F6CC01",
"2 c #F1CD0B",
"3 c #F5E691",
"4 c #FCD206",
"5 c #F2F3F6",
"6 c #F9D20C",
"7 c #F8D104",
"8 c #F4C904",
"9 c #F6F7F6",
"0 c #E3C52A",
"q c #CBCACA",
"w c #F0F3F9",
"e c #A28609",
"r c #D7CB85",
"t c #F5F6FA",
"y c #F3F7EC",
"u c #715F18",
"i c #8E7514",
"p c #ECC400",
"a c #716C52",
"s c #E8C206",
"d c #FAF9F9",
"f c #B49207",
"g c #E1DED7",
"h c #C8A60F",
"j c #54400B",
"k c #7F7A69",
"l c #C8AE24",
"z c #FED90A",
"x c #EDC809",
"c c #B4A970",
"v c #665822",
"b c #D6B001",
"n c #D7D4D2",
"m c #977E13",
"M c #F2EDD7",
"N c #EFD32C",
"B c #E0BD0A",
"V c #DADADA",
"C c #F4DA3F",
"Z c #EFF2F4",
"A c #F1CE03",
"S c #AA8A06",
"D c #EBCF45",
"F c #E1DAC3",
"G c #EBC515",
"H c #C3A208",
"J c #766722",
"K c #BB9C0C",
"L c #CCAC0D",
"P c #DEBD18",
"I c #846A10",
"U c #EBD03A",
"Y c #C4B982",
"T c #E0C232",
"R c #C1B37B",
"E c #E0E0E1",
"W c #B6A76C",
"Q c #766A3D",
"! c #AAA998",
"~ c #E9E4CA",
"^ c #6F540C",
"/ c #BFBEB3",
"( c #B09B3C",
") c #9A853F",
"_ c #F2E392",
"` c #917E28",
"' c #B1A77E",
"] c #F5DA01",
"[ c #F2CB02",
"{ c #F2D008",
"} c #F5BE0C",
/* pixels */
"s*.zz**************************************2*zz7.B",
"X4Pmf2[$ [$$$$$$$$[ $[[$$$[ $[[$$$$$$ [$$$$O<Kmo4o",
"sG^jjm6:                                  &7SjjjPB",
"xh^mmixO   &&   [[[[[[[[[[[[[[[[[[[O[[&    8IIeIHX",
"soiiiH@    [O%8--------------------@2[%  [$@fiimso",
"X.bKL2%  &[- p::::::::::::::::::::::81%[  [@sKKB7o",
"X@-77&&  &2:D33333333333333333333333_01O&[ &1-6-@o",
"X@$$: [A[8&UM,,,,,,,,,,,,,,,,,,,,,,,,FT.@O   $::.o",
"X@    &O8$UM5>>>>>>>===>=====>>>>=>=>tFT-O&    $.o",
"X@    &8$DMw=+#+###################=+>9FTO[    $.o",
"X@    A8UM5>+######>>>>>>>>>>>>####=+#>tF0%&   $.o",
"X@&   O%rw+#######>d;d;d;dddd;d######+#=wR:O   $.o",
"X@    [8rZ#+######9nqqqqqqqqqqq9######=#ZWp%   $.o",
"X@    &$rw++#####9/vuuuuuuuuuuv!d>######ZWp@   $.o",
"X@    O$rw+#####=t'LsXXXXXXXXXBY5+#####5#cp@   $.o",
"X@&   O$rw+####>=,Yp..*.......@rw+#####5#cpO   $.o",
"X@    O$rw+#####=wRs@$$$$$$$8&:rw+#####5#cpO   $.o",
"X@8   O$rw+#####=tYs@        O$rw+#####55cpO   $.o",
"X@$   O$rZ>>>>>>=wRs@[  [[[[[O$rw+#####5#cpO   $.o",
"X@$   O$r;;;;;;;;;Ys@&&[$$$$88:rZ+#####55cpO   $.o",
"X@ [  :4(kkkkkkkkk)xO[@:NNNNNNUFw+####+5wcp@   $.o",
"X@ [  &-BeeeeeeeeeK<818DMyyyyyy#>#####+5Zcp@   $.o",
"X@&[  &%{6676767667A@$DM5y#>=+==######=Z,cp@   $.o",
"X@      :&$$$$$$$$$A8DM##+####==####=+>;q`:    $.o",
"X@                [&DMt>###########=+>;qJH.$   $.o",
"X@               [OG~t=#######>>>>>>>;qJh6$    $.o",
"X@               [10g9>+#####+;;;;;d;qJh6&&    $.o",
"X@                10g9#+####>9!aaaaakJH6&&     $.o",
"X@                10g9#+###>tniSSSSSeh4$       $.o",
"X@                10g9#+###>tnlz644447  %      $.o",
"X@&               10g9#+###>9nl-:$$$$$         $.o",
"X@                10g5>>>>>>9nl7$              $.o",
"X@               [10E;9dddd9;Vl7&              $.o",
"X@&              [10qEVVVVVVE/l4[              $.o",
"X@               &%xJvvvvvvvvuL4&              $.o",
"X@                &-Xbbbbbbbbbx-O              $.o",
"X@                [8NCCCCCCCCN2@%              $.o",
"X@                %0~9yyyyyy9FP-2              $.o",
"X@&               10g9>>###>9nl4&              $.o",
"X@$               10g9+++++=9nl7$              $.o",
"X@8               10g9>+###>9nl7$              $.o",
"X@$               10g9>++++>9nl7$              $.o",
"X.8:x&%          [10g,5955t5;Vl7&         [[&:::.o",
"XO7zz-O          $1GQaaaaaaaaQh4:         O$14z4@o",
"X6humG-$          &-hfffffffffs@$         $1Gmuhzo",
"sBjjji6$            .474444444@&         [$6mjjjPB",
"xhuemixO            $::::::::$&          $@xIieIhB",
"sBmiih@&[                    [[          [[{fiiSxo",
"X7oHo<%                       O           $OxhLx7o",
"X<<66222222222222222222222222222222222222222<66<<P"
};
