/* XPM */
static char *_55f00bc1fca41d585158be7a7a6522eBhzUsXIEWftk11vx[] = {
/* columns rows colors chars-per-pixel */
"50 50 14 1 ",
"  c #254B5A",
". c #254E5E",
"X c #214C5C",
"o c #294E5C",
"O c #295161",
"+ c #214655",
"@ c #153340",
"# c #031824",
"$ c #1B3D4A",
"% c #315C6B",
"& c #06212E",
"* c #2D5665",
"= c #0E2A37",
"- c #366474",
/* pixels */
"=$$$$+++  ++ + X++$$$@&&=@@@@@$$$@@@@$$$@$$$$$$+$=",
"*%*O***%%---%%%%***%%+&+****%%----------------%% @",
"%%o  +++++  + XXXX..O$=O*XXXXX...OOO*O..oooooo o+=",
"-% o       .+......X*+=**  ..X......X.   ooooooO+=",
"--         . O.O.XXXO$&O%+......O.....X ooo oo.O$=",
"%-oo      .O OO.....O$&O* ....O.OO..XX.oooooo.X @&",
"*-         O*.XO.X..O+&X%  XX.OO...XX..oooooo+X.$&",
"%%    .....OOO +.X.XO =+%+   o...XXXX.ooOo +  .O$=",
"-*   .o..OOOoOO XX...o=+%+ .oo XXX.XX.ooooooo...$&",
"%.  ....O.*OooO  oooo &.%     XXXXX..oo oOOOO..O$&",
"%*ooooo.OOOOoooo+oooO+=O*          ..o oOoooOOOo$=",
"*+@@@@@@@$@@@@@@=@@@$$&$$==@@@==@$@@==@$$@===@@=&&",
"@==&&&&&&&&#&&&&==&&==&&=&=&&&&&==&##&=&&&&&&=&&&&",
"-%%%%%%%*OOo @=O-%%--%*O%-%%*%%%%*+&@--%O%-%%---%-",
"%%%%****%-%%%$$-**%%***%%*OOO***O.*@$-%----%%%%%%%",
"O*OO.X  oooo @@* oooo .        ++X+=$%+XX.. .o ooO",
"***OO.OoOOOOo@@*ooooooo..oooo    X+=+*X.X+. oooO**",
"OOOO...oOOOOo=@*oooooo.ooooooo  +X+&o%+.  o oooO*O",
"OOoOOoooOO*Oo=@*ooooooOoooooooo   $&$-.  .ooo  oOO",
"OO.O.ooooOOOo=@%ooooOOOOoooo      +&$-O+...     o.",
"..XX.ooooOOOO=@-Ooo*OO*ooo   o   ++&$-     .  XXXX",
"..XXX..oO.O*O=@-O.OOOOO*o.OO    + +&+*+XXXXXXXXXXX",
".o.oooooooO*o=@%*OO****Oooo*Ooo   $&+OXXXXX       ",
"@@=@@@@@@@@@@==+$@@@@=@==@@=@@@@@@=&@$@@@@@@@@@@@@",
"######&#######&&###########&#######&&&####&#######",
"+++@&$+++  ++++   ooo++$+&@ *O..OoooOO..+++ +++   ",
"%*O@&o*O**OoooO***%%%***+&$--%%%*%****%*%%%*OO**%%",
"X  @&    .ooooo...O..X .$&$-XX      X   XXXX++    ",
".. == X  ......oOOOOO...$&$%.X...........XX      .",
"XO =&.X ...O...oOOOO..X.$#$*  . . .oooo..X    .X..",
".OX==OX .o..O.OOOOOOO...$#$*.   ...oooo....o oXXX.",
".O+&&OX ...O.OOoOOOOO.XO$#$%..    .oooo....o  XXXX",
"OO+&=O   .XO.OoOOOO.X..O$#$*ooo ....o.X...ooo XX..",
".O+&=O XXXX...OoO..XXX.O+#$* oo. ...o.X.Xoo O XX..",
"OO+=&.oo.     oOO.O..OOO+&$*oOO..OOOO....oo.OO..O*",
"$$@=&$@@@@@====@$@@@@@@@@&@+$$$$$$$@$$+$$$$$$$$$$$",
"&############################&####&&&&&####&&#####",
".+$@@$+XX+$+++++=&@$+$+++++++ +@$.Oo +$@@$@&#=$$$+",
"-------%%*%%*OO+&&O%*%%-%%%%*%%%--%OO*%%%% &&+%**%",
"X.....X+    XXX+&= o   XX.X.   +X  .      .=#+*X..",
"..XXXXX    .XX.+&=  ooO..OOO. o+XXooo     .@#+%X.O",
".....XX+   XXXX+#=oooOOOO**O.X +XX.Oo  XXX.=#$-X.O",
".....XX X   XXX$#= oOOOO***O.XX+X.oOo  XXXX=#@-X..",
".o.    XX     X$#@  ooOOOOOO..+XXX.o.  .XX =#$-X..",
".. +  .X..   XX$#@   OO*oOOO.XX+X.O.  ..XXX=#+* .o",
" .    .X.   X .$#@  oO*Ooooo.X.++.Oo. ..XX.=# o+o ",
"..X  XXXX  X  X+&=  oOO..X.XXXXXX.X.XXXXX+X=# . oo",
" oo  XX..o...XX+&=X..OO....OO..O...O... ..o@# O oo",
"=@@@@@$$$$$$$$$@#&@@@@@@@@@@@@@@==@@@==@@@@&#@@@@=",
"#######&&#&&##&&##################################"
};
